Coordinates
version=1
nRows=16
nColumns=36
inDegrees=yes

Units are S.I. units (second, meters, Newtons, ...)
If the header above contains a line with 'inDegrees', this indicates whether rotational values are in degrees (yes) or radians (no).

endheader
time	pelvis_tilt	pelvis_list	pelvis_rotation	pelvis_tx	pelvis_ty	pelvis_tz	hip_flexion_r	hip_adduction_r	hip_rotation_r	knee_angle_r	knee_angle_r_beta	ankle_angle_r	subtalar_angle_r	mtp_angle_r	hip_flexion_l	hip_adduction_l	hip_rotation_l	knee_angle_l	knee_angle_l_beta	ankle_angle_l	subtalar_angle_l	mtp_angle_l	lumbar_extension	lumbar_bending	lumbar_rotation	arm_flex_r	arm_add_r	arm_rot_r	elbow_flex_r	pro_sup_r	arm_flex_l	arm_add_l	arm_rot_l	elbow_flex_l	pro_sup_l
      3.22916670	    -37.24587487	     -0.81343479	      3.41702523	      0.05517696	      0.54569353	     -0.05116479	    113.92806459	     -5.54285361	      7.51825301	    107.01264765	      1.86772304	     29.32383640	    -15.83423952	     -7.49999987	    114.38960962	     -3.60171983	      6.28612230	    107.78494503	      1.88120217	     24.36535687	    -11.05384974	     -7.49999987	    -29.19047865	     -2.49604917	      0.27395035	     95.09265333	    -35.29494212	     63.12000387	     35.21384074	     67.15397938	    107.70209836	    -31.02854707	     92.10634142	     37.90504324	     56.99166372
      3.23333330	    -37.61381183	     -0.58482083	      2.98854373	      0.05442776	      0.54681309	     -0.05050119	    113.91720352	     -5.66317986	      7.59860019	    106.79842342	      1.86398412	     29.96743074	    -14.93645271	     -7.49999987	    114.24993586	     -3.97018584	      6.11489253	    107.68606704	      1.87947643	     24.74226863	    -10.79694941	     -7.49999987	    -28.59499301	     -2.36452447	      0.38163739	     96.05116430	    -34.74676200	     63.83478403	     34.43559455	     66.42166001	    107.42301723	    -31.35392198	     90.72474892	     38.09256762	     56.27491419
      3.23750000	    -37.85080639	     -0.49480244	      2.80594959	      0.05865914	      0.55243064	     -0.05524015	    113.57664466	     -6.08839391	      7.41134468	    106.42933166	      1.85754226	     30.33633190	    -14.17452116	     -7.49999987	    113.93984208	     -3.98380374	      5.90832592	    107.43951704	      1.87517332	     24.50102516	    -10.92252907	     -7.49999987	    -28.34812439	     -2.06715312	      0.58158377	     96.66736938	    -35.00758449	     63.77237916	     34.57516859	     66.35239483	    107.47203185	    -31.29255153	     89.99214143	     38.93177316	     56.10535725
      3.24166670	    -38.00511630	     -0.30554709	      2.76395634	      0.06280891	      0.55350924	     -0.06050653	    113.34782690	     -6.51329284	      7.53195778	    106.11992961	      1.85214217	     30.41807253	    -14.08911439	     -7.49999987	    113.52282164	     -3.79970650	      5.28127671	    107.21773178	      1.87130244	     24.84769866	    -11.24296488	     -7.49999987	    -28.05731422	     -1.69507012	      0.74760228	     97.50588903	    -35.36712299	     63.58535889	     34.55717574	     66.31212851	    107.42731413	    -31.22022126	     89.58974889	     39.31017650	     56.06874585
      3.24583330	    -38.03265674	     -0.11719158	      2.61339636	      0.07029173	      0.55306767	     -0.06040474	    113.09845866	     -6.81413661	      7.54735976	    106.24896624	      1.85439429	     30.64463835	    -14.09399851	     -7.49999987	    113.01777042	     -3.65415806	      5.15054906	    107.56514759	      1.87736599	     25.22123758	    -11.49223914	     -7.49999987	    -27.72024071	     -1.55060113	      0.87070429	     98.05953399	    -35.67820580	     63.45062901	     34.56583664	     66.27441438	    107.57721437	    -31.30512240	     89.32527245	     39.46333152	     56.05187985
      3.25000000	    -38.34024165	      0.09812570	      2.48172476	      0.06529555	      0.55386779	     -0.05545514	    113.36358857	     -6.80963146	      7.49447881	    106.18505637	      1.85327885	     30.90405797	    -13.84895443	     -7.49999987	    113.13502435	     -3.47797413	      5.16233937	    107.71536070	      1.87998770	     25.70629964	    -11.74624549	     -7.49999987	    -27.26082687	     -1.58269588	      1.04498270	     99.03850269	    -36.04260512	     63.25829685	     34.49136247	     66.25296229	    107.97460932	    -31.24739295	     88.69523498	     39.63238813	     55.98282341
      3.25416670	    -38.39778412	     -0.07082308	      2.22951894	      0.06509101	      0.55606613	     -0.06544740	    113.37633730	     -6.99154681	      7.47647063	    106.15194405	      1.85270093	     31.40812924	    -12.58446175	     -7.49999987	    113.33229957	     -3.01138352	      5.33991724	    108.09755679	      1.88665828	     25.30322917	    -12.29824927	     -7.49999987	    -27.20761035	     -1.00570326	      1.65695671	    100.99449423	    -37.28252635	     65.02462368	     36.03175673	     66.39466359	    106.72815540	    -31.55886085	     81.15754109	     41.25392341	     55.96387906
      3.25833330	    -38.23436909	     -0.08567657	      2.07967910	      0.06159729	      0.55725437	     -0.06065244	    113.31428504	     -6.74088088	      7.53568778	    106.08053148	      1.85145455	     31.28834694	    -12.26223224	     -7.49999987	    113.39051380	     -2.61475085	      5.57847061	    108.28024561	      1.88984680	     24.83925394	    -13.05861864	     -7.49999987	    -27.45225186	     -1.05690925	      1.62213733	    102.31747291	    -37.27908815	     65.04385001	     35.99093460	     66.32094897	    108.22938553	    -31.55268218	     81.01392651	     41.09302765	     56.41508387
      3.26250000	    -38.20836438	     -0.00332087	      1.83852625	      0.06228857	      0.55658235	     -0.06071304	    113.36842129	     -6.16875344	      7.81511650	    105.99708044	      1.84999805	     31.23410896	    -12.48546453	     -7.49999987	    113.47410748	     -2.61914712	      5.77249071	    108.27274483	      1.88971589	     24.55372654	    -13.56035700	     -7.49999987	    -27.57660736	     -1.40881969	      1.61912466	    103.94590188	    -37.74786325	     66.77137351	     36.39234824	     65.57335643	    110.31795286	    -31.35069720	     82.09460455	     41.12825483	     58.35590675
      3.26666670	    -38.16482151	      0.33755762	      1.47637460	      0.06363445	      0.55765095	     -0.06015929	    113.39458675	     -5.54928403	      8.14039645	    105.91336454	      1.84853693	     31.02015629	    -12.80663161	     -7.49999987	    113.05472607	     -2.80136219	      5.86088855	    107.88192295	      1.88289476	     24.27764950	    -14.31537412	     -7.49999987	    -27.52033354	     -1.94789681	      1.98525079	    105.08115791	    -38.15012943	     66.94745541	     36.34450605	     65.03965230	    111.51119225	    -31.06002716	     81.46639709	     41.48239141	     58.58995581
      3.27083330	    -38.34140468	      0.64288689	      0.96459218	      0.07276757	      0.56051359	     -0.05983108	    113.20481001	     -4.86977142	      8.25035881	    105.75843561	      1.84583291	     31.09420752	    -12.77158975	     -7.49999987	    112.71872779	     -3.36219637	      5.89140884	    107.83023075	      1.88199256	     24.20614394	    -14.61011841	     -7.49999987	    -27.15509202	     -2.50063962	      2.55861281	    106.04321335	    -38.61356987	     67.06957565	     36.07504209	     65.07729272	    112.47263067	    -30.87738120	     81.19919969	     41.56825422	     58.60863695
      3.27500000	    -38.26717209	      0.75254796	      0.84765801	      0.07321717	      0.56224736	     -0.05955808	    112.65964582	     -4.53588021	      8.35114530	    105.50405097	      1.84139306	     31.21201688	    -13.13053758	     -7.49999987	    112.13098771	     -3.77723596	      5.64921636	    107.57517093	      1.87754093	     24.36123047	    -14.53493057	     -7.49999987	    -27.37084233	     -2.64599611	      2.68516646	    107.31126010	    -39.42492090	     66.48200882	     37.42915485	     64.58783923	    113.77548632	    -31.31647867	     80.45896846	     42.88401765	     58.67015304
      3.27916670	    -38.29611436	      0.67740917	      0.85161843	      0.07295061	      0.56414676	     -0.05956409	    112.29645109	     -4.52043306	      8.23911284	    105.31062163	      1.83801708	     31.07726547	    -13.50522510	     -7.49999987	    111.76114593	     -3.80350517	      5.65373479	    107.25282510	      1.87191493	     24.42965603	    -14.57869572	     -7.49999987	    -27.24151006	     -2.75590921	      2.63960834	    108.14727382	    -40.22109081	     65.84264125	     39.10696314	     64.07810560	    114.85616463	    -31.89180319	     79.73166422	     44.35818411	     58.74357168
      3.28333330	    -38.81010986	      0.60796874	      1.38171488	      0.07310950	      0.56813496	     -0.05916630	    112.25785795	     -4.66594508	      8.39072079	    104.76697108	      1.82852859	     30.31175111	    -15.03338347	     -7.49999987	    111.78677257	     -3.32606627	      5.51050090	    106.47065446	      1.85826348	     24.36494163	    -14.96543724	     -7.49999987	    -26.35633737	     -3.27137176	      2.80874093	    107.59805915	    -41.68242128	     62.25716459	     40.31500469	     66.55573325	    116.05684506	    -29.69471956	     80.74959930	     42.33725336	     59.03263234
      3.28750000	    -38.82315176	      0.41479553	      1.61724799	      0.07322022	      0.57386324	     -0.05994865	    111.59295638	     -4.78136011	      8.21302366	    103.96332056	      1.81450225	     30.27877440	    -15.50039733	     -7.49999987	    111.35933506	     -2.90224626	      5.57020500	    105.85600957	      1.84753590	     24.37732022	    -15.16142925	     -7.49999987	    -26.33891407	     -3.14408628	      2.47531741	    108.43068306	    -42.10371482	     61.58939773	     42.25133722	     65.89727298	    117.17455388	    -30.31504940	     80.05529502	     43.76870355	     59.06256081
      3.29166670	    -39.11361467	      0.29064872	      1.76635276	      0.07356138	      0.57825014	     -0.05977396	    111.32384233	     -4.83501377	      8.04092557	    103.17031603	      1.80066170	     29.31711804	    -16.72587607	     -7.49999987	    111.05097078	     -2.33135224	      5.79220528	    104.99172925	      1.83245136	     23.61442602	    -16.47674137	     -7.49999987	    -25.92759882	     -3.14977403	      2.13291660	    108.95949277	    -42.00962108	     60.55643326	     43.45466191	     65.75003508	    118.30283702	    -30.24464221	     79.73039415	     44.08840843	     59.18880721
